<svg width="1024" height="1024" viewBox="0 0 1024 1024" fill="none" xmlns="http://www.w3.org/2000/svg">
<g clip-path="url(#clip0_2035_2)">
<path d="M244.858 105C254.861 87.6735 273.348 76.9999 293.355 76.9999L731.455 77C751.462 77.0001 769.949 87.6734 779.952 105L999.002 484.405C1009.01 501.731 1009 523.078 999.002 540.405L779.952 919.81C769.949 937.136 751.461 947.81 731.455 947.81L293.355 947.81C273.348 947.81 254.861 937.137 244.858 919.81L25.8081 540.405C15.8048 523.079 15.805 501.732 25.8082 484.405L244.858 105Z" fill="#FEF2E4" stroke="#44240B" stroke-width="16"/>
<path d="M448.5 913.672L296.579 913.672C286.218 913.672 276.645 908.144 271.464 899.172L56.2074 526.336C51.027 517.363 51.027 506.308 56.2074 497.336L271.464 124.5C276.645 115.527 286.218 110 296.579 110L727.093 110C737.453 110 747.027 115.527 752.207 124.5L967.464 497.336C972.645 506.308 972.645 517.363 967.464 526.336L752.207 899.172C747.027 908.144 737.453 913.672 727.093 913.672L576 913.672" stroke="#E28F0F" stroke-width="12" stroke-linecap="round"/>
<circle cx="512" cy="888" r="32" fill="#E28F0F"/>
<path d="M554 888C554 911.196 535.196 930 512 930C488.804 930 470 911.196 470 888C470 870.355 494.303 835.867 505.935 820.371C509.006 816.28 514.994 816.28 518.065 820.371C529.697 835.867 554 870.355 554 888Z" fill="#E28F0F"/>
<path d="M483 881.5C485 871.5 496.5 856 494.5 861C492.5 866 490.4 878.1 490 880.5C489.5 883.5 489 894 492 900.5C495 907 500.5 910 502.5 911C506 912 505.5 915.9 501.5 915.5C496.5 915 488.864 911 486 906.5C482.5 901 480.5 894 483 881.5Z" fill="#FEF2E4"/>
<path d="M573.057 849.839L596.805 835" stroke="#E28F0F" stroke-width="6" stroke-linecap="round"/>
<path d="M427 835L450.894 849.931" stroke="#E28F0F" stroke-width="6" stroke-linecap="round"/>
<path d="M581.096 867.751L608.126 860" stroke="#E28F0F" stroke-width="6" stroke-linecap="round"/>
<path d="M416 860L442.915 867.718" stroke="#E28F0F" stroke-width="6" stroke-linecap="round"/>
<path d="M497.094 759C497.809 757.762 499.129 757 500.558 757L523.939 757C525.368 757 526.689 757.762 527.403 759L539.094 779.249C539.809 780.486 539.809 782.011 539.094 783.249L527.403 803.497C526.689 804.735 525.368 805.497 523.939 805.497L500.558 805.497C499.129 805.497 497.809 804.735 497.094 803.497L485.403 783.249C484.689 782.011 484.689 780.486 485.403 779.249L497.094 759Z" fill="#E28F0F"/>
<path d="M545.894 731C546.609 729.762 547.929 729 549.358 729L572.739 729C574.168 729 575.489 729.762 576.203 731L587.894 751.249C588.609 752.486 588.609 754.011 587.894 755.249L576.203 775.497C575.489 776.735 574.168 777.497 572.739 777.497L549.358 777.497C547.929 777.497 546.609 776.735 545.894 775.497L534.203 755.249C533.489 754.011 533.489 752.486 534.203 751.249L545.894 731Z" fill="#E28F0F"/>
<path d="M448.194 731C448.909 729.762 450.229 729 451.658 729L475.039 729C476.468 729 477.789 729.762 478.503 731L490.194 751.249C490.909 752.486 490.909 754.011 490.194 755.249L478.503 775.497C477.789 776.735 476.468 777.497 475.039 777.497L451.658 777.497C450.229 777.497 448.909 776.735 448.194 775.497L436.503 755.249C435.789 754.011 435.789 752.486 436.503 751.249L448.194 731Z" fill="#E28F0F"/>
<path d="M497.094 702.5C497.809 701.262 499.129 700.5 500.558 700.5L523.939 700.5C525.368 700.5 526.689 701.262 527.403 702.5L539.094 722.749C539.809 723.986 539.809 725.511 539.094 726.749L527.403 746.997C526.689 748.235 525.368 748.997 523.939 748.997L500.558 748.997C499.129 748.997 497.809 748.235 497.094 746.997L485.403 726.749C484.689 725.511 484.689 723.986 485.403 722.749L497.094 702.5Z" fill="#E28F0F"/>
<path d="M360 741H424" stroke="#E28F0F" stroke-width="6" stroke-linecap="round"/>
<path d="M600 741H664" stroke="#E28F0F" stroke-width="6" stroke-linecap="round"/>
<path d="M262.45 595.6L206.85 463.2H206.05V555.4C206.05 564.2 206.583 570.733 207.65 575C208.716 579.133 210.85 581.867 214.05 583.2C217.383 584.533 222.316 585.333 228.85 585.6V593.6H167.25V585.6C173.916 585.333 178.85 584.533 182.05 583.2C185.383 581.867 187.583 579.2 188.65 575.2C189.85 571.2 190.45 565.067 190.45 556.8V476.4C190.45 468.8 189.916 462.933 188.85 458.8C187.916 454.667 185.916 451.8 182.85 450.2C179.916 448.467 172.818 447.089 169.45 447.6C169.45 444.476 169.45 442.724 169.45 439.6C170.902 439.6 230.05 439.6 230.05 439.6L276.65 556.2H277.45L323.65 439.6H382.05V447.6C376.183 447.6 371.716 448.467 368.65 450.2C365.716 451.8 363.783 454.8 362.85 459.2C361.916 463.467 361.45 469.667 361.45 477.8V555.4C361.45 564.2 361.983 570.733 363.05 575C364.116 579.133 366.25 581.867 369.45 583.2C372.783 584.533 377.716 585.333 384.25 585.6V593.6H309.05V585.6C315.716 585.333 320.65 584.533 323.85 583.2C327.183 581.867 329.383 579.2 330.45 575.2C331.516 571.2 332.05 565.067 332.05 556.8V463.2H331.05L277.25 595.6H262.45Z" fill="#44240B"/>
<path d="M480.756 595.6C474.622 595.6 469.889 593.8 466.556 590.2C463.356 586.467 461.756 581.133 461.756 574.2H460.756C457.156 580.867 452.222 586.067 445.956 589.8C439.689 593.533 432.823 595.4 425.356 595.4C419.223 595.4 414.022 594.267 409.756 592C405.489 589.6 402.289 586.533 400.156 582.8C398.022 579.067 396.956 575.067 396.956 570.8C396.956 564.267 399.622 558.467 404.956 553.4C410.422 548.2 419.089 543.067 430.956 538L458.956 526V517.6C458.956 510 457.556 504.4 454.756 500.8C452.089 497.2 447.956 495.4 442.356 495.4C438.489 495.4 435.556 496.4 433.556 498.4C431.556 500.267 429.622 503.733 427.756 508.8C426.689 511.867 425.022 514.4 422.756 516.4C420.489 518.4 417.489 519.4 413.756 519.4C410.022 519.4 407.089 518.333 404.956 516.2C402.956 513.933 401.956 510.933 401.956 507.2C401.956 500.4 405.489 495.133 412.556 491.4C419.622 487.533 430.022 485.6 443.756 485.6C458.956 485.6 469.756 488.267 476.156 493.6C482.556 498.933 485.756 508 485.756 520.8V564.6C485.756 570.467 486.289 574.8 487.356 577.6C488.556 580.267 490.422 581.6 492.956 581.6C494.022 581.6 495.089 581.4 496.156 581C497.356 580.6 498.489 579.933 499.556 579L502.556 584.8C500.822 588 497.956 590.6 493.956 592.6C489.956 594.6 485.556 595.6 480.756 595.6ZM437.756 576.8C441.489 576.8 444.956 575.867 448.156 574C451.356 572.133 453.956 569.6 455.956 566.4C457.956 563.067 458.956 559.467 458.956 555.6V536.6C450.556 540.6 443.889 544.133 438.956 547.2C434.023 550.267 430.489 553.2 428.356 556C426.223 558.8 425.156 561.8 425.156 565C425.156 568.6 426.289 571.467 428.556 573.6C430.822 575.733 433.889 576.8 437.756 576.8Z" fill="#44240B"/>
<path d="M556.6 553V562.6C556.6 569.4 557.066 574.467 558 577.8C558.933 581 560.933 583.067 564 584C567.066 584.933 571.666 585.467 577.8 585.6V593.6H511V585.6C516.466 585.2 520.4 584.467 522.8 583.4C525.333 582.333 526.933 580.2 527.6 577C528.4 573.8 528.8 568.867 528.8 562.2V537.8C528.8 529.533 528.533 522.933 528 518C527.6 512.933 526.733 509.133 525.4 506.6C524.2 503.933 522.333 502.2 519.8 501.4C517.4 500.467 514.2 500 510.2 500V493L550.2 485.6L553.4 508.6H554.2C557.8 501.533 562.533 495.933 568.4 491.8C574.266 487.667 580.466 485.6 587 485.6C592.066 485.6 596.2 486.867 599.4 489.4C602.6 491.933 604.2 495.133 604.2 499C604.2 503.267 602.933 506.867 600.4 509.8C598 512.733 594.666 514.2 590.4 514.2C587.733 514.2 585.4 513.533 583.4 512.2C581.533 510.867 579.8 509.533 578.2 508.2C576.6 506.867 574.866 506.2 573 506.2C570.466 506.2 568.066 507.867 565.8 511.2C563.533 514.533 561.666 519 560.2 524.6C559.133 528.6 558.266 533.133 557.6 538.2C556.933 543.133 556.6 548.067 556.6 553Z" fill="#44240B"/>
<path d="M624.209 498.6H609.609V489.6C617.476 487.333 624.142 483.867 629.609 479.2C635.076 474.533 639.142 469.267 641.809 463.4H652.009V487.6H675.009V498.6H652.009V560C652.009 568.133 652.942 574 654.809 577.6C656.676 581.067 659.676 582.8 663.809 582.8C666.476 582.8 668.742 582.267 670.609 581.2C672.609 580 674.276 578.133 675.609 575.6L679.809 581.4C676.076 590.867 667.276 595.6 653.409 595.6C644.209 595.6 637.009 593.467 631.809 589.2C626.742 584.933 624.209 578.933 624.209 571.2V498.6Z" fill="#44240B"/>
<path d="M732.376 485.6V560.8C732.376 567.867 732.709 573.133 733.376 576.6C734.176 580.067 735.843 582.4 738.376 583.6C740.909 584.667 744.709 585.333 749.776 585.6V593.6H686.776V585.6C691.843 585.333 695.643 584.6 698.176 583.4C700.709 582.067 702.376 579.8 703.176 576.6C704.109 573.267 704.576 568.467 704.576 562.2V537.6C704.576 529.867 704.443 523.467 704.176 518.4C703.909 513.333 703.576 509.933 703.176 508.2C702.509 504.867 700.976 502.667 698.576 501.6C696.309 500.533 692.109 500 685.976 500V493.2L732.376 485.6ZM709.576 463.4H697.776L723.176 439.6C729.309 433.867 734.976 431 740.176 431C743.509 431 746.176 431.8 748.176 433.4C750.176 435 751.176 437.2 751.176 440C751.176 442.267 749.909 444.267 747.376 446C744.976 447.733 741.643 449.533 737.376 451.4L709.576 463.4Z" fill="#44240B"/>
<path d="M804.642 533.4V561C804.642 568.2 804.975 573.467 805.642 576.8C806.308 580.133 807.842 582.333 810.242 583.4C812.775 584.467 816.708 585.2 822.042 585.6V593.6H759.042V585.6C764.242 585.2 768.108 584.533 770.642 583.6C773.175 582.533 774.842 580.4 775.642 577.2C776.442 574 776.842 569.067 776.842 562.4V537.4C776.842 529.533 776.708 523.2 776.442 518.4C776.175 513.467 775.842 510.133 775.442 508.4C774.642 504.933 773.108 502.667 770.842 501.6C768.575 500.533 764.375 500 758.242 500V493.2L796.842 485.6L799.442 503.2H800.242C804.642 497.733 809.842 493.467 815.842 490.4C821.975 487.2 828.575 485.6 835.642 485.6C844.175 485.6 851.042 486.8 856.242 489.2C861.575 491.467 866.308 495.333 870.442 500.8C872.708 503.867 874.708 507.867 876.442 512.8C878.175 517.6 879.042 524.267 879.042 532.8V561C879.042 568.2 879.375 573.467 880.042 576.8C880.708 580.133 882.242 582.333 884.642 583.4C887.175 584.467 890.975 585.2 896.042 585.6V593.6H833.442V585.6C838.775 585.333 842.642 584.667 845.042 583.6C847.575 582.533 849.242 580.4 850.042 577.2C850.842 573.867 851.242 568.933 851.242 562.4V535.2C851.242 521.6 849.508 512.133 846.042 506.8C842.708 501.333 836.708 498.6 828.042 498.6C823.775 498.6 820.108 499.8 817.042 502.2C813.975 504.6 811.308 507.933 809.042 512.2C808.242 513.8 807.508 515.733 806.842 518C806.175 520.267 805.642 522.733 805.242 525.4C804.842 527.933 804.642 530.6 804.642 533.4Z" fill="#44240B"/>
<path fill-rule="evenodd" clip-rule="evenodd" d="M169.45 439.6C169.45 439.6 169.45 444.476 169.45 447.6C164.391 449.09 161.563 450.804 157.902 454.6C154.321 458.313 152.542 461.069 151.402 466.1C150.365 470.674 150.163 473.744 151.902 478.1C153.496 482.094 155.257 484.318 158.902 486.6C162.797 489.039 167.153 485.849 170.402 489.1C174.152 492.852 173.402 500.111 172.402 502.6C170.594 507.1 165.902 510.6 159.402 511.6C151.489 512.817 145.445 511.713 138.902 507.1C133.54 503.319 131.057 499.797 128.902 493.6C126.529 486.776 126.596 481.206 127.902 474.1C128.984 468.209 130.423 465.797 133.402 460.6C136.01 456.049 138.051 453.761 141.902 450.2C146.371 446.067 149.689 443.701 155.402 441.6C160.603 439.688 169.45 439.6 169.45 439.6Z" fill="#44240B"/>
<path d="M264.046 689.56C259.182 689.56 254.862 688.472 251.086 686.296C247.374 684.056 244.462 680.984 242.35 677.08C240.238 673.112 239.182 668.6 239.182 663.544C239.182 658.424 240.238 653.848 242.35 649.816C244.462 645.784 247.342 642.616 250.99 640.312C254.702 637.944 258.862 636.76 263.47 636.76C266.67 636.76 269.518 637.24 272.014 638.2C274.51 639.16 276.654 640.792 278.446 643.096H278.83V634.936C278.83 631.16 278.766 627.928 278.638 625.24C278.574 622.488 278.446 620.696 278.254 619.864C277.998 618.52 277.038 617.56 275.374 616.984C273.71 616.344 271.182 616.024 267.79 616.024V612.76L292.078 608.92V663.832C292.078 668.568 292.11 672.248 292.174 674.872C292.302 677.496 292.494 679.48 292.75 680.824C293.07 682.488 293.646 683.576 294.478 684.088C295.31 684.536 297.102 684.76 299.854 684.76V688.504L281.614 689.56V682.456H281.23C279.054 684.824 276.494 686.616 273.55 687.832C270.67 688.984 267.502 689.56 264.046 689.56ZM278.638 664.792V661.048C278.638 658.616 278.382 656.376 277.87 654.328C277.358 652.216 276.59 650.36 275.566 648.76C274.414 646.904 272.942 645.496 271.15 644.536C269.358 643.576 267.438 643.096 265.39 643.096C261.678 643.096 258.798 644.856 256.75 648.376C254.766 651.832 253.774 656.824 253.774 663.352C253.774 669.944 254.766 675.064 256.75 678.712C258.734 682.296 261.582 684.088 265.294 684.088C267.406 684.088 269.422 683.544 271.342 682.456C273.262 681.368 274.83 679.896 276.046 678.04C276.942 676.632 277.582 674.904 277.966 672.856C278.414 670.744 278.638 668.056 278.638 664.792ZM351.246 676.312L353.934 679.672C348.11 686.264 340.846 689.56 332.142 689.56C326.894 689.56 322.286 688.472 318.318 686.296C314.35 684.12 311.246 681.112 309.006 677.272C306.83 673.368 305.742 668.888 305.742 663.832C305.742 658.52 306.894 653.848 309.198 649.816C311.566 645.72 314.83 642.52 318.99 640.216C323.15 637.912 327.918 636.76 333.294 636.76C340.078 636.76 345.358 638.616 349.134 642.328C352.91 645.976 354.798 651.064 354.798 657.592C354.798 658.616 354.638 659.256 354.318 659.512C353.998 659.704 353.102 659.8 351.63 659.8H320.718C320.59 660.12 320.494 660.536 320.43 661.048C320.366 661.56 320.334 662.2 320.334 662.968C320.334 667.128 320.942 670.744 322.158 673.816C323.438 676.824 325.198 679.16 327.438 680.824C329.742 682.488 332.43 683.32 335.502 683.32C338.19 683.32 340.846 682.712 343.47 681.496C346.158 680.28 348.75 678.552 351.246 676.312ZM321.39 654.424H335.31C337.934 654.424 339.598 654.296 340.302 654.04C341.006 653.72 341.358 653.016 341.358 651.928C341.358 649.112 340.558 646.808 338.958 645.016C337.358 643.224 335.342 642.328 332.91 642.328C330.158 642.328 327.694 643.48 325.518 645.784C323.406 648.024 322.03 650.904 321.39 654.424ZM381.962 608.92V672.856C381.962 676.248 382.122 678.776 382.442 680.44C382.826 682.104 383.626 683.224 384.842 683.8C386.058 684.312 387.882 684.632 390.314 684.76V688.6H360.074V684.76C362.506 684.632 364.33 684.28 365.546 683.704C366.762 683.064 367.562 681.976 367.946 680.44C368.394 678.84 368.618 676.536 368.618 673.528V633.88C368.618 630.168 368.554 627.096 368.426 624.664C368.298 622.232 368.138 620.6 367.946 619.768C367.626 618.168 366.89 617.112 365.738 616.6C364.65 616.088 362.634 615.832 359.69 615.832V612.568L381.962 608.92ZM483.923 620.632L485.747 614.68H490.451L488.531 638.968H484.691C483.347 633.08 480.723 628.44 476.819 625.048C472.979 621.656 468.307 619.96 462.803 619.96C457.811 619.96 453.523 621.272 449.939 623.896C446.419 626.456 443.731 630.168 441.875 635.032C440.019 639.832 439.091 645.592 439.091 652.312C439.091 662.168 441.139 669.784 445.235 675.16C449.331 680.536 455.315 683.224 463.187 683.224C469.523 683.224 474.803 681.496 479.027 678.04C483.251 674.52 486.259 669.368 488.051 662.584H492.275V688.6H487.763L486.419 681.016C479.379 686.712 470.835 689.56 460.787 689.56C453.043 689.56 446.291 688.056 440.531 685.048C434.771 682.04 430.291 677.816 427.091 672.376C423.955 666.872 422.387 660.376 422.387 652.888C422.387 647.064 423.347 641.784 425.267 637.048C427.187 632.248 429.875 628.12 433.331 624.664C436.851 621.144 441.043 618.456 445.907 616.6C450.771 614.68 456.115 613.72 461.939 613.72C465.843 613.72 469.491 614.264 472.883 615.352C476.339 616.44 480.019 618.2 483.923 620.632ZM540.394 689.56C537.45 689.56 535.178 688.696 533.578 686.968C532.042 685.176 531.274 682.616 531.274 679.288H530.794C529.066 682.488 526.698 684.984 523.69 686.776C520.682 688.568 517.386 689.464 513.802 689.464C510.858 689.464 508.362 688.92 506.314 687.832C504.266 686.68 502.73 685.208 501.706 683.416C500.682 681.624 500.17 679.704 500.17 677.656C500.17 674.52 501.45 671.736 504.01 669.304C506.634 666.808 510.794 664.344 516.49 661.912L529.93 656.152V652.12C529.93 648.472 529.258 645.784 527.914 644.056C526.634 642.328 524.65 641.464 521.962 641.464C520.106 641.464 518.698 641.944 517.738 642.904C516.778 643.8 515.85 645.464 514.954 647.896C514.442 649.368 513.642 650.584 512.554 651.544C511.466 652.504 510.026 652.984 508.234 652.984C506.442 652.984 505.034 652.472 504.01 651.448C503.05 650.36 502.57 648.92 502.57 647.128C502.57 643.864 504.266 641.336 507.658 639.544C511.05 637.688 516.042 636.76 522.634 636.76C529.93 636.76 535.114 638.04 538.186 640.6C541.258 643.16 542.794 647.512 542.794 653.656V674.68C542.794 677.496 543.05 679.576 543.562 680.92C544.138 682.2 545.034 682.84 546.25 682.84C546.762 682.84 547.274 682.744 547.786 682.552C548.362 682.36 548.906 682.04 549.418 681.592L550.858 684.376C550.026 685.912 548.65 687.16 546.73 688.12C544.81 689.08 542.698 689.56 540.394 689.56ZM519.754 680.536C521.546 680.536 523.21 680.088 524.746 679.192C526.282 678.296 527.53 677.08 528.49 675.544C529.45 673.944 529.93 672.216 529.93 670.36V661.24C525.898 663.16 522.698 664.856 520.33 666.328C517.962 667.8 516.266 669.208 515.242 670.552C514.218 671.896 513.706 673.336 513.706 674.872C513.706 676.6 514.25 677.976 515.338 679C516.426 680.024 517.898 680.536 519.754 680.536ZM576.799 660.088V672.76C576.799 676.28 576.959 678.872 577.279 680.536C577.599 682.2 578.335 683.288 579.487 683.8C580.639 684.248 582.495 684.568 585.055 684.76V688.6H554.719V684.76C557.279 684.568 559.167 684.216 560.383 683.704C561.599 683.192 562.399 682.168 562.783 680.632C563.167 679.096 563.359 676.728 563.359 673.528V661.624C563.359 657.976 563.295 654.936 563.167 652.504C563.103 650.008 562.943 648.344 562.687 647.512C562.303 645.848 561.599 644.792 560.575 644.344C559.615 643.896 557.599 643.672 554.527 643.672V640.408L573.055 636.76L574.207 645.112H574.783C577.471 642.104 580.191 639.96 582.943 638.68C585.695 637.4 588.831 636.76 592.351 636.76C596.575 636.76 600.063 637.496 602.815 638.968C605.567 640.44 607.647 642.552 609.055 645.304H609.439C611.743 642.616 614.495 640.536 617.695 639.064C620.959 637.528 624.383 636.76 627.967 636.76C631.743 636.76 635.071 637.24 637.951 638.2C640.831 639.16 643.071 640.536 644.671 642.328C645.951 643.736 646.879 645.656 647.455 648.088C648.095 650.52 648.415 653.816 648.415 657.976V672.76C648.415 676.28 648.575 678.872 648.895 680.536C649.279 682.136 650.047 683.192 651.199 683.704C652.415 684.216 654.271 684.568 656.767 684.76V688.6H626.431V684.76C628.991 684.632 630.879 684.312 632.095 683.8C633.311 683.288 634.079 682.264 634.399 680.728C634.783 679.128 634.975 676.728 634.975 673.528V660.952C634.975 654.296 634.175 649.656 632.575 647.032C630.975 644.344 628.191 643 624.223 643C621.983 643 620.127 643.544 618.655 644.632C617.247 645.72 616.063 647.128 615.103 648.856C614.591 649.816 614.143 650.904 613.759 652.12C613.375 653.336 613.087 654.616 612.895 655.96C612.703 657.24 612.607 658.616 612.607 660.088V672.76C612.607 676.28 612.767 678.872 613.087 680.536C613.407 682.136 614.143 683.192 615.295 683.704C616.511 684.216 618.431 684.568 621.055 684.76V688.6H590.623V684.76C593.183 684.568 595.071 684.216 596.287 683.704C597.503 683.192 598.271 682.168 598.591 680.632C598.975 679.096 599.167 676.728 599.167 673.528V660.952C599.167 656.472 598.815 652.92 598.111 650.296C597.407 647.672 596.255 645.816 594.655 644.728C593.055 643.576 590.847 643 588.031 643C585.919 643 584.159 643.512 582.751 644.536C581.407 645.56 580.287 646.936 579.391 648.664C578.879 649.688 578.399 650.808 577.951 652.024C577.567 653.24 577.279 654.552 577.087 655.96C576.895 657.304 576.799 658.68 576.799 660.088ZM660.074 712.6V708.568C662.378 708.504 664.138 708.152 665.354 707.512C666.57 706.936 667.37 705.848 667.754 704.248C668.202 702.648 668.426 700.312 668.426 697.24V661.528C668.426 658.584 668.362 655.768 668.234 653.08C668.106 650.392 667.946 648.536 667.754 647.512C667.498 646.04 666.794 645.016 665.642 644.44C664.49 643.864 662.57 643.576 659.882 643.576V639.832L679.178 637.144V643.96H679.562C681.674 641.528 684.106 639.736 686.858 638.584C689.61 637.368 692.682 636.76 696.074 636.76C701.066 636.76 705.45 637.912 709.226 640.216C713.066 642.456 716.074 645.56 718.25 649.528C720.426 653.496 721.514 658.04 721.514 663.16C721.514 668.216 720.426 672.76 718.25 676.792C716.074 680.76 713.098 683.896 709.322 686.2C705.546 688.44 701.194 689.56 696.266 689.56C693.13 689.56 690.378 689.048 688.01 688.024C685.706 687 683.722 685.4 682.058 683.224H681.674V696.568C681.674 699.96 681.93 702.488 682.442 704.152C683.018 705.816 684.106 706.936 685.706 707.512C687.37 708.088 689.866 708.44 693.194 708.568V712.6H660.074ZM695.498 683.224C699.402 683.224 702.282 681.592 704.138 678.328C706.058 675.064 707.018 670.072 707.018 663.352C707.018 658.68 706.57 654.808 705.674 651.736C704.842 648.6 703.562 646.232 701.834 644.632C700.17 643.032 698.058 642.232 695.498 642.232C693.45 642.232 691.498 642.68 689.642 643.576C687.786 644.472 686.314 645.656 685.226 647.128C684.202 648.536 683.37 650.36 682.73 652.6C682.154 654.84 681.866 657.24 681.866 659.8V666.328C681.866 668.504 682.154 670.584 682.73 672.568C683.306 674.552 684.138 676.344 685.226 677.944C686.442 679.672 687.914 680.984 689.642 681.88C691.37 682.776 693.322 683.224 695.498 683.224ZM756.676 636.76C760.516 636.76 764.132 637.4 767.524 638.68C770.916 639.96 773.924 641.784 776.548 644.152C779.172 646.456 781.22 649.208 782.692 652.408C784.228 655.544 784.996 659 784.996 662.776C784.996 666.68 784.228 670.264 782.692 673.528C781.22 676.792 779.172 679.64 776.548 682.072C773.924 684.44 770.916 686.296 767.524 687.64C764.132 688.92 760.516 689.56 756.676 689.56C752.9 689.56 749.316 688.92 745.924 687.64C742.596 686.296 739.62 684.44 736.996 682.072C734.436 679.64 732.42 676.792 730.948 673.528C729.476 670.264 728.74 666.68 728.74 662.776C728.74 657.72 730.02 653.24 732.58 649.336C735.14 645.432 738.532 642.36 742.756 640.12C746.98 637.88 751.62 636.76 756.676 636.76ZM756.676 642.328C754.116 642.328 751.844 643.192 749.859 644.92C747.94 646.648 746.436 649.048 745.348 652.12C744.324 655.192 743.812 658.776 743.812 662.872C743.812 669.208 744.964 674.264 747.268 678.04C749.636 681.816 752.772 683.704 756.676 683.704C760.708 683.704 763.908 681.816 766.276 678.04C768.708 674.2 769.924 669.144 769.924 662.872C769.924 658.776 769.38 655.192 768.292 652.12C767.204 649.048 765.668 646.648 763.684 644.92C761.7 643.192 759.364 642.328 756.676 642.328Z" fill="#44240B"/>
<circle cx="172" cy="392" r="8" fill="#E28F0F"/>
<circle cx="852" cy="392" r="8" fill="#E28F0F"/>
<path d="M603.507 275.119C616.356 281.549 626.623 290.32 632.799 299.398C638.932 308.414 641.272 318.155 637.279 326.134C633.286 334.113 624.087 338.079 613.194 338.574C602.226 339.073 589.051 336.113 576.202 329.684C563.385 323.27 548.104 312.006 536.891 300.552C531.287 294.828 526.61 288.969 523.779 283.559C520.998 278.245 519.73 272.835 521.941 268.417C524.152 263.999 529.242 261.771 535.162 260.811C541.19 259.834 548.684 260.064 556.624 261.118C572.514 263.227 590.69 268.706 603.507 275.119Z" fill="#C3DAEA" stroke="#44240B" stroke-width="4"/>
<path d="M602.253 308.669L581.746 298.694L555.315 285.837M622.759 318.644L602.253 308.669M620.652 305.044L602.253 308.669M602.253 308.669L611.28 326.299M602.739 293.517L581.746 298.694M589.01 318.345L581.036 298.919" stroke="#7FB1D1" stroke-width="4" stroke-miterlimit="16" stroke-linecap="round"/>
<path d="M396.713 288.119C383.864 294.549 373.597 303.32 367.422 312.398C361.288 321.414 358.948 331.155 362.941 339.134C366.934 347.113 376.133 351.079 387.026 351.574C397.994 352.073 411.169 349.113 424.018 342.684C436.835 336.27 452.116 325.006 463.33 313.552C468.933 307.828 473.61 301.969 476.441 296.559C479.222 291.245 480.49 285.835 478.279 281.417C476.068 276.999 470.978 274.771 465.058 273.811C459.031 272.834 451.536 273.064 443.596 274.118C427.706 276.227 409.53 281.706 396.713 288.119Z" fill="#C3DAEA" stroke="#44240B" stroke-width="4"/>
<path d="M397.968 321.669L418.474 311.694L444.905 298.837M377.461 331.644L397.968 321.669M379.568 318.044L397.968 321.669M397.968 321.669L388.94 339.299M397.481 306.517L418.474 311.694M411.21 331.345L419.184 311.919" stroke="#7FB1D1" stroke-width="4" stroke-miterlimit="16" stroke-linecap="round"/>
<path d="M561.811 201.89C577.855 189.166 595.337 181.214 610.701 178.718C625.991 176.234 639.668 179.112 647.333 188.778C654.998 198.443 654.685 212.416 648.783 226.738C642.853 241.129 631.128 256.34 615.083 269.064C599.066 281.766 575.261 294.751 553.669 302.352C542.877 306.151 532.519 308.647 523.894 309.042C515.377 309.433 507.956 307.792 503.826 302.585C499.696 297.377 499.79 289.778 502.11 281.573C504.46 273.265 509.25 263.748 515.408 254.106C527.728 234.812 545.794 214.592 561.811 201.89Z" fill="#C3DAEA" stroke="#44240B" stroke-width="4"/>
<path d="M604.102 223.166L578.717 243.766L546 270.317M629.486 202.566L604.102 223.166M610.539 197.064L604.102 223.166M604.102 223.166L632.477 222.119M584.71 213.354L578.717 243.766M608.65 246.234L578.579 244.824" stroke="#7FB1D1" stroke-width="4" stroke-miterlimit="16" stroke-linecap="round"/>
<path d="M435.349 200.89C419.304 188.166 401.822 180.214 386.458 177.718C371.168 175.234 357.491 178.112 349.826 187.778C342.161 197.443 342.475 211.416 348.376 225.738C354.307 240.129 366.032 255.34 382.077 268.064C398.093 280.766 421.898 293.751 443.491 301.352C454.283 305.151 464.64 307.647 473.265 308.042C481.782 308.433 489.203 306.792 493.333 301.585C497.463 296.377 497.37 288.778 495.049 280.573C492.7 272.265 487.909 262.748 481.752 253.106C469.432 233.812 451.366 213.592 435.349 200.89Z" fill="#C3DAEA" stroke="#44240B" stroke-width="4"/>
<path d="M393.058 222.166L418.442 242.766L451.16 269.317M367.674 201.566L393.058 222.166M386.621 196.064L393.058 222.166M393.058 222.166L364.683 221.119M412.45 212.354L418.442 242.766M388.51 245.234L418.581 243.824" stroke="#7FB1D1" stroke-width="4" stroke-miterlimit="16" stroke-linecap="round"/>
<path d="M547.539 427.715C548.02 427.919 548.723 427.947 549.359 427.884C550.003 427.816 550.529 427.664 550.954 427.368C551.378 427.073 551.703 426.632 551.989 426.051C552.268 425.475 552.485 424.807 552.461 424.285C552.461 424.285 552.461 424.285 552.461 424.285C552.44 423.89 552.42 423.496 552.399 423.102C552.025 416.008 551.652 408.914 551.278 401.82C551.258 401.425 551.237 401.031 551.216 400.637C550.991 395.783 549.259 392.185 545.176 391.487C541.165 390.74 535.135 392.952 529.637 396.784C524.139 400.616 519.977 405.507 519.29 409.529C518.532 413.601 521.308 416.471 525.784 418.363C525.784 418.363 525.784 418.363 525.784 418.363C526.146 418.519 526.509 418.675 526.872 418.83C533.398 421.636 539.925 424.442 546.451 427.248C546.814 427.404 547.176 427.56 547.539 427.715Z" fill="#44240B"/>
<path d="M485.786 398.362C485.953 397.201 485.619 395.948 484.943 394.902C484.262 393.855 483.296 393.102 482.169 392.783C481.043 392.464 479.825 392.599 478.696 393.133C477.573 393.669 476.631 394.562 476.164 395.638C475.957 396.125 475.753 396.611 475.55 397.105C473.746 401.331 472.388 406.411 471.539 410.891C471.503 411.07 471.468 411.248 471.434 411.424C470.46 416.065 469.983 421.757 470.121 426.683C470.129 427.238 470.139 427.776 470.153 428.32C470.189 430.728 471.188 432.894 473.111 434.313C475.024 435.735 477.705 436.293 480.382 435.894C483.059 435.495 485.46 434.178 486.875 432.261C488.301 430.341 488.624 427.979 487.956 425.665C487.956 425.665 487.956 425.665 487.956 425.665C487.82 425.202 487.688 424.753 487.559 424.301C486.371 420.23 485.685 416.792 485.402 412.367C485.39 412.206 485.379 412.042 485.368 411.876C485.072 407.623 485.024 404.016 485.591 399.815C485.652 399.335 485.716 398.853 485.786 398.362Z" fill="#44240B"/>
<path d="M592.065 374.633C581.564 409.967 536.868 429.739 494 417C451.132 404.261 425.059 364.5 436.5 326C447.941 287.5 454.88 265.934 532.5 289C575.368 301.739 602.565 339.298 592.065 374.633Z" fill="#44240B"/>
<path d="M592.065 374.633C581.564 409.967 536.868 429.739 494 417C451.132 404.261 425.059 364.5 436.5 326C447.941 287.5 454.88 265.934 532.5 289C575.368 301.739 602.565 339.298 592.065 374.633Z" fill="#44240B"/>
<path d="M553.622 297.922C558.298 300.558 562.655 303.521 566.648 306.754C566.88 308.811 567 310.894 567 313C567 350.555 529.392 381 483 381C467.095 381 452.223 377.421 439.545 371.204C434.535 359.815 432.624 347.352 434.532 334.794C447.193 343.066 463.154 348 480.5 348C516.745 348 546.942 326.459 553.622 297.922Z" fill="#FDC64A"/>
<path d="M566.649 306.754C570.673 310.011 574.325 313.545 577.562 317.293C579.155 322.651 580 328.245 580 334C580 373.212 540.825 405 492.5 405C482.013 405 471.957 403.501 462.638 400.756C452.397 392.564 444.471 382.404 439.544 371.204C452.223 377.421 467.096 381 483 381C529.392 381 567 350.555 567 313C567 310.894 566.88 308.811 566.649 306.754Z" fill="#44240B"/>
<path d="M577.594 317C581.643 321.668 585.037 326.676 587.687 331.909C588.548 336.158 589 340.536 589 345.011C589 384.769 553.509 417 509.729 417C503.29 417 497.03 416.302 491.036 414.986C490.549 414.831 491.519 415.147 491.036 414.986C479.897 411.456 471.395 406.565 463 399.877C472.292 402.604 482.32 404.092 492.778 404.092C540.964 404.091 580.026 372.528 580.026 333.592C580.026 327.877 579.183 322.321 577.594 317Z" fill="#FDC64A"/>
<path d="M587.683 332.299C594.376 345.57 596.328 360.285 592.064 374.633C581.564 409.967 536.868 429.739 494 417C492.907 416.675 491.824 416.331 490.753 415.972C496.764 417.297 503.042 418 509.5 418C553.407 418 589 385.541 589 345.5C589 340.991 588.546 336.58 587.683 332.299Z" fill="#44240B"/>
<path d="M592.065 374.633C581.564 409.967 536.868 429.739 494 417C451.132 404.261 425.059 364.5 436.5 326C447.941 287.5 454.88 265.934 532.5 289C575.368 301.739 602.565 339.298 592.065 374.633Z" stroke="#44240B" stroke-width="4"/>
<path d="M575.732 387.837C574.981 386.936 573.826 386.346 572.597 386.148C571.363 385.953 570.156 386.167 569.166 386.79C568.175 387.413 567.46 388.409 567.102 389.605C566.748 390.799 566.781 392.096 567.268 393.163C567.491 393.643 567.716 394.12 567.948 394.601C569.88 398.77 572.745 403.179 575.506 406.808C575.616 406.954 575.724 407.099 575.832 407.243C578.628 411.073 582.539 415.236 586.291 418.431C586.709 418.796 587.115 419.148 587.529 419.503C589.342 421.087 591.62 421.795 593.962 421.315C596.298 420.845 598.508 419.227 600.003 416.971C601.498 414.715 602.126 412.049 601.648 409.715C601.176 407.371 599.637 405.549 597.471 404.497C597.471 404.497 597.471 404.497 597.471 404.497C597.036 404.289 596.614 404.087 596.191 403.88C592.371 402.037 589.358 400.246 585.881 397.495C585.753 397.396 585.624 397.295 585.494 397.192C582.135 394.565 579.423 392.187 576.681 388.954C576.365 388.588 576.05 388.217 575.732 387.837Z" fill="#44240B"/>
<path d="M461.451 322C462.203 321.969 462.929 321.626 463.47 321.073C464.011 320.519 464.321 319.799 464.334 319.047C464.346 318.295 464.06 317.565 463.537 316.993C463.015 316.422 462.3 316.056 461.549 316C461.549 316 461.549 316 461.549 316C460.072 315.893 458.621 315.789 457.154 315.685C443.141 314.874 430.105 312.995 419.095 306.001C408.757 299.901 399.83 292.559 392.616 283.552C391.758 282.495 390.919 281.417 390.096 280.32C388.816 278.624 386.938 277.549 384.821 277.379C382.708 277.206 380.53 277.95 378.82 279.404C377.11 280.857 376.023 282.886 375.853 285C375.679 287.116 376.436 289.143 377.904 290.68C377.904 290.68 377.904 290.68 377.904 290.68C378.979 291.817 380.076 292.936 381.197 294.034C390.649 303.44 402.183 310.803 413.905 315.999C427.586 322.675 443.358 322.985 457.059 322.184C458.533 322.122 459.981 322.059 461.451 322Z" fill="#44240B"/>
<path d="M392.494 296.51C387.057 301.199 377.24 298.727 370.568 290.99C363.895 283.253 362.893 273.179 368.33 268.49C373.767 263.801 383.584 266.272 390.257 274.01C396.93 281.747 397.931 291.821 392.494 296.51Z" fill="#44240B"/>
<path d="M390.437 292.108C386.695 291.764 384.15 286.168 384.752 279.61C385.355 273.051 388.877 268.013 392.619 268.357C396.361 268.701 398.906 274.296 398.303 280.855C397.701 287.413 394.179 292.451 390.437 292.108Z" fill="#44240B"/>
<path d="M513.771 309.039C513.025 309.139 512.333 309.548 511.846 310.148C511.359 310.751 511.117 311.496 511.174 312.247C511.232 312.997 511.585 313.697 512.158 314.218C512.731 314.737 513.476 315.035 514.229 315.021C514.229 315.021 514.229 315.021 514.229 315.021C515.71 314.991 517.164 314.959 518.635 314.928C532.663 314.434 545.817 315.093 557.429 321.035C568.288 326.149 577.858 332.63 585.878 340.928C586.83 341.901 587.765 342.896 588.687 343.912C590.119 345.482 592.089 346.378 594.212 346.351C596.332 346.327 598.432 345.383 600 343.778C601.568 342.172 602.461 340.05 602.434 337.93C602.411 335.807 601.469 333.859 599.865 332.465C599.865 332.465 599.865 332.465 599.865 332.465C598.689 331.433 597.492 330.421 596.274 329.432C585.989 320.943 573.822 314.684 561.668 310.599C547.426 305.221 531.694 306.377 518.126 308.447C516.664 308.646 515.228 308.843 513.771 309.039Z" fill="#44240B"/>
<path d="M585.368 328.015C590.346 322.842 600.35 324.391 607.713 331.475C615.075 338.559 617.008 348.496 612.03 353.67C607.052 358.843 597.048 357.295 589.685 350.21C582.323 343.126 580.39 333.189 585.368 328.015Z" fill="#44240B"/>
<path d="M587.825 332.207C591.583 332.202 594.637 337.537 594.646 344.123C594.655 350.709 591.616 356.053 587.859 356.058C584.101 356.063 581.047 350.728 581.038 344.142C581.029 337.556 584.068 332.213 587.825 332.207Z" fill="#44240B"/>
<ellipse cx="489" cy="258" rx="80" ry="72" fill="#FDC64A" stroke="#44240B" stroke-width="4"/>
<ellipse cx="447" cy="258" rx="12" ry="16" fill="#44240B"/>
<circle cx="449" cy="253" r="4" fill="#FEF2E4"/>
<path d="M510.5 264C510.5 264 516 258 522.5 258C529 258 533.5 264 533.5 264" stroke="#44240B" stroke-width="6" stroke-linecap="round"/>
<path d="M497 278.5C497 278.5 489.887 281.042 484 281C478.501 280.961 470.5 277 469.5 279C468.5 281 472 282 472 282" stroke="#44240B" stroke-width="2" stroke-linecap="round"/>
<path d="M497 278.5C497 278.5 497 299 483.968 299C470.936 299 472.022 279 472.022 279" stroke="#44240B" stroke-width="2" stroke-linecap="round"/>
<path d="M492.5 294L495 289.5L496 284.5V279.5L490 281L484 282L479 281L474 279.5L470.5 279L470 280L472 282.5L472.5 285.5L474 291L476 295.5L479.5 297.5L483.5 299L489 297.5L492.5 294Z" fill="#44240B"/>
<path d="M491 288C492.181 288 493.332 288.129 494.44 288.372C494.433 288.397 494.426 288.422 494.418 288.447C492.822 293.469 489.792 298 483.968 298C481.114 298 479.05 296.957 477.517 295.381C480.36 290.942 485.337 288 491 288Z" fill="#E1722B"/>
<ellipse cx="534" cy="285" rx="12" ry="8" fill="#E28F0F"/>
<ellipse cx="435" cy="285" rx="12" ry="8" fill="#E28F0F"/>
<path d="M496 200C499 185.5 501.08 174.515 510.5 161.5C520.03 148.333 528.063 141.908 543 135.5" stroke="#44240B" stroke-width="4" stroke-linecap="round"/>
<path d="M482.976 199.978C480.444 185.389 478.718 174.343 469.722 161.032C460.62 147.566 452.798 140.885 438.075 134" stroke="#44240B" stroke-width="4" stroke-linecap="round"/>
<ellipse cx="555" cy="138" rx="18" ry="13" fill="#44240B"/>
<ellipse cx="430" cy="138" rx="18" ry="13" fill="#44240B"/>
<path d="M420 134.5C422.975 132.619 425.003 131.903 428.5 131.5C432.013 131.095 434.162 131.333 437.5 132.5" stroke="#FEF2E4" stroke-width="4" stroke-miterlimit="16" stroke-linecap="round"/>
<path d="M545 134.183C547.975 132.302 550.003 131.587 553.5 131.183C557.013 130.778 559.162 131.017 562.5 132.183" stroke="#FEF2E4" stroke-width="4" stroke-miterlimit="16" stroke-linecap="round"/>
<path d="M633 358C633 358 667.279 358.657 689 352C712.693 344.738 726 337.5 745 320.5C756.307 310.384 766.285 292 764.5 284C762.715 276 757.794 270.317 747.5 269C736.338 267.572 726 286 726 286" stroke="#44240B" stroke-width="6" stroke-linecap="round" stroke-dasharray="12 12"/>
<path d="M825.5 337.5C825.5 337.5 808.453 354.993 794.499 361C775.613 369.131 761.697 370.9 741.999 365C717.257 357.589 702.996 337.371 692 314C686.254 301.787 683.525 290.042 687 277C690.378 264.319 700 261.589 710.5 263C722.153 264.566 725.999 286 725.999 286" stroke="#44240B" stroke-width="6" stroke-linecap="round" stroke-dasharray="12 12"/>
<path d="M311 758.024C321.68 762.429 330.542 765.563 340 768.146C340.993 768.417 341.992 768.682 343 768.942C350.188 770.793 357.851 772.379 367 774M245 719C270.5 736 278.058 743.778 302 754.205M309 780L340 768.146M333.5 746.5L343 768.942M295 726L311 758.024M311 758.024C309.065 757.226 307.069 756.386 305 755.5C303.982 755.064 302.982 754.633 302 754.205M268.5 759L302 754.205" stroke="#937C30" stroke-width="4" stroke-miterlimit="16" stroke-linecap="round"/>
<path d="M285.765 785.887C296.383 770.723 315.52 765.07 332.179 770.866C331.239 772.816 330.131 774.716 328.85 776.547C318.232 791.711 299.094 797.364 282.434 791.568C283.374 789.618 284.483 787.717 285.765 785.887Z" fill="#937C30"/>
<path d="M246.028 758.021C260.209 746.123 280.157 745.615 294.749 755.525C293.336 757.166 291.774 758.714 290.062 760.151C275.881 772.05 255.933 772.558 241.341 762.647C242.753 761.007 244.316 759.458 246.028 758.021Z" fill="#937C30"/>
<path d="M328.611 726.459C341.961 735.808 346.939 752.657 341.836 767.325C340.119 766.497 338.446 765.522 336.834 764.393C323.483 755.045 318.505 738.195 323.608 723.527C325.325 724.354 326.999 725.331 328.611 726.459Z" fill="#937C30"/>
<path d="M288.676 706.49C304.707 715.746 312.007 734.317 307.685 751.419C305.661 750.653 303.671 749.714 301.735 748.597C285.704 739.341 278.404 720.769 282.726 703.667C284.751 704.434 286.741 705.373 288.676 706.49Z" fill="#937C30"/>
<path d="M223 700C245.88 700 265.17 715.368 271.112 736.344C268.472 736.775 265.762 737 263 737C240.12 737 220.829 721.632 214.887 700.655C217.527 700.224 220.238 700 223 700Z" fill="#937C30"/>
<path d="M713 758.024C702.32 762.429 693.458 765.563 684 768.146C683.007 768.417 682.008 768.682 681 768.942C673.812 770.793 666.149 772.379 657 774M779 719C753.5 736 745.942 743.778 722 754.205M715 780L684 768.146M690.5 746.5L681 768.942M729 726L713 758.024M713 758.024C714.935 757.226 716.931 756.386 719 755.5C720.018 755.064 721.018 754.633 722 754.205M755.5 759L722 754.205" stroke="#937C30" stroke-width="4" stroke-miterlimit="16" stroke-linecap="round"/>
<path d="M738.235 785.887C727.617 770.723 708.48 765.07 691.821 770.866C692.761 772.816 693.869 774.716 695.15 776.547C705.768 791.711 724.906 797.364 741.566 791.568C740.626 789.618 739.517 787.717 738.235 785.887Z" fill="#937C30"/>
<path d="M777.972 758.021C763.791 746.123 743.843 745.615 729.251 755.525C730.664 757.166 732.226 758.714 733.938 760.151C748.119 772.05 768.067 772.558 782.659 762.647C781.247 761.007 779.684 759.458 777.972 758.021Z" fill="#937C30"/>
<path d="M695.389 726.459C682.039 735.808 677.061 752.657 682.164 767.325C683.881 766.497 685.554 765.522 687.166 764.393C700.517 755.045 705.495 738.195 700.392 723.527C698.675 724.354 697.001 725.331 695.389 726.459Z" fill="#937C30"/>
<path d="M735.324 706.49C719.293 715.746 711.993 734.317 716.315 751.419C718.339 750.653 720.329 749.714 722.265 748.597C738.296 739.341 745.596 720.769 741.274 703.667C739.249 704.434 737.259 705.373 735.324 706.49Z" fill="#937C30"/>
<path d="M801 700C778.12 700 758.83 715.368 752.888 736.344C755.528 736.775 758.238 737 761 737C783.88 737 803.171 721.632 809.113 700.655C806.473 700.224 803.762 700 801 700Z" fill="#937C30"/>
<path d="M237.478 393.519L228.054 395.72L222.1 370.224L231.512 368.026C234.11 367.42 236.466 367.408 238.58 367.99C240.7 368.563 242.494 369.685 243.96 371.355C245.425 373.017 246.466 375.172 247.085 377.82C247.705 380.476 247.727 382.877 247.152 385.024C246.585 387.17 245.479 388.973 243.834 390.433C242.186 391.886 240.068 392.914 237.478 393.519ZM232.99 389.027L236.015 388.321C237.442 387.987 238.594 387.465 239.469 386.753C240.35 386.031 240.917 385.063 241.167 383.849C241.424 382.625 241.338 381.096 240.91 379.262C240.481 377.427 239.883 376.027 239.115 375.06C238.344 374.084 237.401 373.473 236.284 373.226C235.174 372.969 233.888 373.011 232.428 373.352L229.49 374.038L232.99 389.027ZM253.967 363.363L258.172 389.205L251.926 390.222L247.721 364.38L253.967 363.363ZM260.531 388.894L257.903 362.845L268.664 361.759C270.614 361.562 272.333 361.744 273.82 362.305C275.315 362.857 276.514 363.747 277.417 364.975C278.32 366.194 278.861 367.694 279.04 369.475C279.223 371.281 278.983 372.856 278.322 374.199C277.66 375.533 276.637 376.605 275.254 377.412C273.87 378.211 272.186 378.711 270.202 378.911L263.397 379.598L262.896 374.637L268.531 374.069C269.481 373.973 270.261 373.77 270.872 373.46C271.491 373.141 271.94 372.71 272.219 372.168C272.498 371.617 272.597 370.939 272.515 370.133C272.434 369.328 272.202 368.679 271.818 368.186C271.433 367.686 270.905 367.336 270.234 367.138C269.563 366.932 268.756 366.876 267.815 366.971L264.711 367.285L266.827 388.259L260.531 388.894ZM273.996 375.509L281.684 386.76L274.815 387.453L267.254 376.189L273.996 375.509ZM282.364 386.766L281.621 360.595L299.87 360.077L300.016 365.214L288.093 365.553L288.245 370.92L299.235 370.608L299.381 375.758L288.391 376.07L288.544 381.45L300.467 381.111L300.613 386.249L282.364 386.766ZM327.114 370.717L320.729 370.414C320.675 369.755 320.529 369.155 320.29 368.614C320.051 368.074 319.723 367.606 319.307 367.211C318.891 366.816 318.389 366.506 317.802 366.282C317.225 366.05 316.578 365.917 315.863 365.883C314.595 365.823 313.486 366.082 312.537 366.659C311.597 367.238 310.852 368.102 310.302 369.254C309.761 370.406 309.451 371.816 309.372 373.484C309.289 375.221 309.467 376.688 309.905 377.887C310.352 379.077 311.013 379.991 311.887 380.63C312.77 381.261 313.833 381.606 315.076 381.665C315.774 381.698 316.412 381.638 316.991 381.487C317.578 381.335 318.097 381.1 318.548 380.78C319.007 380.452 319.389 380.048 319.693 379.567C320.006 379.079 320.233 378.522 320.374 377.897L326.757 378.239C326.591 379.391 326.201 380.516 325.586 381.613C324.979 382.711 324.168 383.7 323.154 384.582C322.139 385.456 320.921 386.131 319.499 386.61C318.086 387.089 316.481 387.286 314.685 387.201C312.318 387.088 310.223 386.468 308.399 385.341C306.585 384.205 305.184 382.611 304.198 380.559C303.212 378.507 302.787 376.047 302.923 373.178C303.06 370.301 303.725 367.888 304.918 365.939C306.111 363.991 307.669 362.542 309.591 361.592C311.513 360.642 313.636 360.223 315.96 360.333C317.544 360.408 318.998 360.699 320.322 361.206C321.646 361.704 322.799 362.398 323.781 363.29C324.763 364.172 325.544 365.238 326.125 366.485C326.705 367.733 327.035 369.144 327.114 370.717ZM329.642 366.561L330.308 361.466L352.251 364.337L351.584 369.432L343.712 368.402L340.982 389.267L334.796 388.458L337.526 367.593L329.642 366.561ZM375.248 383.054C374.603 385.862 373.517 388.118 371.989 389.822C370.461 391.526 368.659 392.674 366.582 393.264C364.514 393.856 362.338 393.89 360.053 393.366C357.761 392.84 355.814 391.855 354.212 390.412C352.611 388.969 351.493 387.152 350.86 384.96C350.236 382.762 350.245 380.263 350.888 377.464C351.532 374.656 352.614 372.399 354.134 370.693C355.662 368.989 357.46 367.841 359.528 367.249C361.596 366.656 363.777 366.623 366.07 367.15C368.354 367.674 370.298 368.653 371.901 370.088C373.513 371.525 374.634 373.343 375.266 375.543C375.898 377.743 375.892 380.247 375.248 383.054ZM368.943 381.607C369.324 379.946 369.409 378.488 369.199 377.233C368.997 375.98 368.523 374.957 367.778 374.165C367.041 373.375 366.058 372.839 364.829 372.557C363.608 372.277 362.489 372.331 361.473 372.719C360.457 373.106 359.581 373.819 358.845 374.857C358.116 375.896 357.562 377.247 357.18 378.908C356.799 380.569 356.709 382.027 356.912 383.28C357.122 384.535 357.6 385.558 358.345 386.35C359.09 387.142 360.073 387.678 361.294 387.958C362.524 388.24 363.642 388.187 364.65 387.797C365.666 387.409 366.538 386.696 367.266 385.656C368.003 384.618 368.561 383.269 368.943 381.607Z" fill="#44240B"/>
<path d="M629.451 406.914L620.384 403.53L629.54 379.001L638.594 382.381C641.093 383.314 643.062 384.608 644.5 386.264C645.949 387.914 646.822 389.841 647.118 392.044C647.418 394.239 647.092 396.611 646.142 399.158C645.188 401.713 643.877 403.725 642.21 405.195C640.55 406.668 638.631 407.557 636.452 407.863C634.275 408.16 631.942 407.844 629.451 406.914ZM628.199 400.689L631.11 401.775C632.483 402.288 633.731 402.49 634.854 402.381C635.988 402.268 636.995 401.775 637.876 400.903C638.767 400.026 639.542 398.705 640.201 396.94C640.86 395.176 641.137 393.678 641.032 392.447C640.93 391.208 640.483 390.177 639.69 389.353C638.907 388.525 637.814 387.848 636.408 387.324L633.582 386.268L628.199 400.689ZM645.065 412.5L651.34 387.081L669.064 391.456L667.832 396.445L656.252 393.587L654.965 398.8L665.639 401.435L664.405 406.436L653.731 403.801L652.441 409.027L664.021 411.885L662.789 416.875L645.065 412.5ZM666.661 417.663L670.824 391.814L677.071 392.82L673.725 413.595L684.479 415.327L683.662 420.401L666.661 417.663ZM719.253 406.222L712.871 405.868C712.823 405.208 712.681 404.607 712.446 404.064C712.212 403.522 711.888 403.052 711.475 402.653C711.062 402.255 710.563 401.941 709.978 401.712C709.402 401.475 708.757 401.337 708.042 401.298C706.774 401.227 705.663 401.477 704.71 402.047C703.765 402.618 703.013 403.477 702.454 404.624C701.904 405.771 701.582 407.179 701.49 408.847C701.393 410.582 701.559 412.051 701.988 413.253C702.425 414.447 703.078 415.366 703.947 416.012C704.825 416.65 705.885 417.003 707.128 417.072C707.826 417.111 708.464 417.057 709.045 416.91C709.633 416.763 710.154 416.532 710.607 416.215C711.069 415.891 711.454 415.49 711.762 415.012C712.079 414.526 712.31 413.971 712.456 413.348L718.836 413.74C718.661 414.891 718.262 416.013 717.638 417.105C717.022 418.198 716.204 419.181 715.182 420.054C714.161 420.92 712.938 421.586 711.512 422.053C710.095 422.521 708.488 422.705 706.693 422.605C704.327 422.474 702.237 421.837 700.422 420.695C698.617 419.545 697.229 417.94 696.26 415.88C695.29 413.82 694.885 411.356 695.044 408.489C695.203 405.612 695.888 403.205 697.096 401.266C698.305 399.327 699.874 397.891 701.804 396.956C703.734 396.022 705.86 395.62 708.183 395.749C709.766 395.836 711.218 396.139 712.538 396.656C713.858 397.165 715.005 397.869 715.98 398.768C716.955 399.658 717.727 400.73 718.298 401.982C718.869 403.234 719.187 404.648 719.253 406.222ZM726.931 422.735L720.133 422.922L728.242 396.507L736.664 396.275L746.215 422.204L739.417 422.391L732.731 402.983L732.526 402.988L726.931 422.735ZM725.74 412.46L739.951 412.069L740.083 416.874L725.873 417.265L725.74 412.46ZM745.703 395.959L753.477 394.969L762.118 410.21L762.422 410.171L766.97 393.251L774.744 392.262L778.05 418.234L771.938 419.012L769.907 403.058L769.691 403.086L765.462 419.669L761.556 420.166L753.295 405.083L753.079 405.11L755.122 421.153L749.009 421.931L745.703 395.959ZM781.911 417.535L775.92 392.047L786.449 389.573C788.357 389.124 790.091 389.11 791.653 389.531C793.22 389.942 794.537 390.723 795.604 391.872C796.669 393.014 797.407 394.46 797.819 396.211C798.232 397.97 798.208 399.6 797.747 401.1C797.292 402.59 796.44 403.863 795.19 404.918C793.941 405.974 792.342 406.73 790.392 407.189L783.896 408.716L782.755 403.862L788.107 402.604C789.036 402.386 789.774 402.042 790.32 401.572C790.874 401.1 791.245 400.536 791.432 399.879C791.617 399.214 791.618 398.491 791.435 397.712C791.249 396.923 790.928 396.281 790.47 395.785C790.01 395.28 789.427 394.944 788.723 394.777C788.018 394.61 787.205 394.635 786.284 394.851L783.248 395.565L788.071 416.087L781.911 417.535ZM823.38 391.129C824.373 393.833 824.694 396.316 824.344 398.578C823.995 400.84 823.111 402.785 821.693 404.413C820.283 406.038 818.478 407.255 816.278 408.062C814.07 408.873 811.901 409.111 809.772 408.776C807.642 408.441 805.714 407.528 803.986 406.038C802.264 404.537 800.908 402.438 799.918 399.742C798.926 397.038 798.6 394.556 798.942 392.297C799.292 390.035 800.172 388.091 801.581 386.466C802.991 384.841 804.8 383.623 807.008 382.812C809.209 382.005 811.372 381.764 813.498 382.091C815.633 382.415 817.565 383.326 819.296 384.825C821.026 386.323 822.387 388.424 823.38 391.129ZM817.308 393.358C816.72 391.758 815.996 390.489 815.134 389.553C814.281 388.613 813.326 388.015 812.27 387.758C811.221 387.499 810.105 387.586 808.92 388.021C807.744 388.453 806.837 389.108 806.197 389.987C805.558 390.867 805.212 391.942 805.162 393.214C805.119 394.482 805.391 395.917 805.979 397.517C806.566 399.117 807.287 400.387 808.14 401.326C809.001 402.263 809.96 402.86 811.017 403.117C812.073 403.373 813.19 403.286 814.366 402.854C815.55 402.419 816.458 401.764 817.089 400.887C817.729 400.008 818.07 398.934 818.113 397.665C818.163 396.394 817.895 394.958 817.308 393.358Z" fill="#44240B"/>
</g>
<defs>
<clipPath id="clip0_2035_2">
<rect width="1024" height="1024" fill="white"/>
</clipPath>
</defs>
</svg>
